# xmcd CD database file
#
# Track frame offsets:
#	150
#	14452
#	33424
#	61351
#	79769
#	92593
#	116885
#	132296
#	148342
#	170933
#	188922
#	218568
#
# Disc length: 3137 seconds
#
# Revision: 0
# Processed by: cddbd v1.5.1PL0 Copyright (c) Steve Scherf et al.
# Submitted via: CDex 1.51
#
DISCID=b00c3f0c
DTITLE=Michelle Latimer - Michelle Latimer Sings and Plays
DYEAR=2004
DGENRE=Jazz
TTITLE0=Blue Daniel
TTITLE1=Moon and Sand
TTITLE2=Corcovado
TTITLE3=Lush Life
TTITLE4=(Love is) The Tender Trap
TTITLE5=Somewhere Over the Rainbow
TTITLE6=The Days of Wine and Roses
TTITLE7=Vierge
TTITLE8=(The) Fool on the Hill
TTITLE9=Whisper Not
TTITLE10=Angel Eyes
TTITLE11=Lost in the City Together
EXTD=YEAR: 2004
EXTT0=
EXTT1=
EXTT2=
EXTT3=
EXTT4=
EXTT5=
EXTT6=
EXTT7=
EXTT8=
EXTT9=
EXTT10=
EXTT11=
PLAYORDER=
